<?xml version="1.0" encoding="UTF-8"?>
<svg id="Layer_1" xmlns="http://www.w3.org/2000/svg" version="1.1" viewBox="0 0 1057.1 1200">
  <!-- Generator: Adobe Illustrator 29.8.2, SVG Export Plug-In . SVG Version: 2.1.1 Build 3)  -->
  <defs>
    <style>
      .st0 {
        fill: #fff;
      }

      .st1 {
        fill: #0e1114;
      }
    </style>
  </defs>
  <path class="st1" d="M1057.44,585.73v19.19c-2,4.43-.59,9.92-1.08,14.75-3.36,32.84-20.58,68.59-41.6,93.68l-484.73,485.39L45.57,715.26c-22.21-26-36.91-57.07-42.41-90.96-.98-6.06-.37-13.26-3.16-18.43v-20.15c2.8-2.99,1.57-7.29,2.04-10.91,4.76-37.04,20-71.37,44.49-99.43L357.41,164.48l1.82-.84,3.01,2.8.48-.44L529.2.45l165.96,165.11,2.73.8,3.07-2.77.48.44,307.55,307.51c27.4,30.42,46.9,70.3,47.45,111.86l1,2.32ZM358.53,178.04L52.28,484.02c-57.78,66.43-54.04,169.64,7.68,232.21l126.81,126.56,305.02-304.05c58.22-66.12,57.48-164.3-1.43-229.82-40.19-44.7-88.66-85.1-129.54-129.53l-2.29-1.34ZM632.35,434.62c-.47-6.03,0-13.02,0-19.19,0-8.31,9.02-25.1,14.42-31.63l52.22-52.37,2.73-.8,220.44,220.06c22.1,23.42,24.48,59.47,4.3,84.95l-55.05,55.37c-.67,2.46,5.81,17.29,7.05,21.38,13.39,44.15,10.25,90.56-9.1,132.4l132.44-131.9c58.19-62.82,61.57-159.48,7.19-225.98l-308.17-308.85-163.37,162.75,94.89,96.71c2.38,1.27.02-2.64,0-2.88ZM519.85,190.69c-29.03,3.64-50.92,39.87-72.25,57.29l-1.34,2.29,83.76,84.01,83.17-83.88-1.43-2.44c-29.52-25.28-46.79-62.93-91.91-57.27ZM700.96,343.97c-18.91,23.18-56.35,44.12-59,76.27-1.25,15.2,4.49,29.95,14.35,41.26l184.75,184.65c9.86,9.76,15.75,23.2,23.64,33.92.6.82.9,1.9,2.19,1.55,14.84-16.4,33.73-31.3,48.05-47.92,19.53-22.65,21.23-51.21,1.45-74.39l-215.45-215.35ZM525.64,537.09c-10.43.7-21.53,5.1-29.56,11.69l-217.74,218.63,214.86,215.05c22.44,18.9,52.04,18.71,73.91-.96l213.9-214.79-217.74-217.93c-10.52-8.11-24.33-12.58-37.63-11.69Z"/>
  <path class="st0" d="M358.53,178.04l2.29,1.34c40.88,44.42,89.35,84.82,129.54,129.53,58.9,65.52,59.65,163.7,1.43,229.82l-305.02,304.05-126.81-126.56c-61.72-62.56-65.46-165.78-7.68-232.21L358.53,178.04ZM358.53,329.63l-224.21,223.93c-20.81,23.72-20.92,60.78,0,84.48l53.28,53.21,222.16-222.06c23.91-27.51,23.95-61.72,0-89.28-14.73-16.95-33.87-32.05-48.94-48.94l-2.29-1.34Z"/>
  <path class="st0" d="M525.64,537.09c13.3-.89,27.11,3.58,37.63,11.69l217.74,217.93-213.9,214.79c-21.87,19.67-51.47,19.86-73.91.96l-214.86-215.05,217.74-218.63c8.04-6.59,19.14-10.99,29.56-11.69Z"/>
  <path class="st0" d="M632.35,434.62c.02.24,2.38,4.15,0,2.88l-94.89-96.71,163.37-162.75,308.17,308.85c54.39,66.51,51.01,163.17-7.19,225.98l-132.44,131.9c19.35-41.84,22.49-88.25,9.1-132.4-1.24-4.09-7.72-18.91-7.05-21.38l55.05-55.37c20.18-25.48,17.79-61.52-4.3-84.95l-220.44-220.06-2.73.8-52.22,52.37c-5.4,6.53-14.42,23.33-14.42,31.63,0,6.17-.47,13.16,0,19.19Z"/>
  <path class="st0" d="M700.96,343.97l215.45,215.35c19.78,23.18,18.08,51.74-1.45,74.39-14.33,16.61-33.21,31.52-48.05,47.92-1.3.35-1.59-.74-2.19-1.55-7.9-10.72-13.78-24.17-23.64-33.92l-184.75-184.65c-9.86-11.31-15.6-26.06-14.35-41.26,2.65-32.15,40.08-53.09,59-76.27Z"/>
  <path class="st0" d="M519.85,190.69c45.13-5.65,62.39,32,91.91,57.27l1.43,2.44-83.17,83.88-83.76-84.01,1.34-2.29c21.32-17.42,43.21-53.66,72.25-57.29Z"/>
  <path class="st1" d="M358.53,329.63l2.29,1.34c15.07,16.89,34.2,31.99,48.94,48.94,23.95,27.56,23.91,61.77,0,89.28l-222.16,222.06-53.28-53.21c-20.92-23.69-20.81-60.76,0-84.48l224.21-223.93ZM358.53,344.02l-217.5,217.22c-16.53,19.82-16.92,48.57-.47,68.63l47.03,46.98,216.41-216.31c39.13-49.1-12.07-82.95-43.18-115.19l-2.29-1.34Z"/>
  <path class="st0" d="M358.53,344.02l2.29,1.34c31.11,32.24,82.3,66.09,43.18,115.19l-216.41,216.31-47.03-46.98c-16.45-20.06-16.06-48.81.47-68.63l217.5-217.22Z"/>
</svg>