<?xml version="1.0" encoding="UTF-8"?>
<svg id="Layer_1" data-name="Layer 1" xmlns="http://www.w3.org/2000/svg" width="1057.0988" height="1200" viewBox="0 0 1057.0988 1200">
  <path d="M700.09302,253.8535l-88.01762,88.01762c-45.90054,45.90054-120.32002,45.90054-166.22056,0l-88.01762-88.01762,88.01762-88.01762c45.90054-45.90054,120.32002-45.90054,166.22056,0l88.01762,88.01762Z" fill="#fff"/>
  <path d="M783.21012,253.86232l-129.57083,129.57083c-68.85279,68.85279-180.48522,68.85279-249.33801,0l-129.57967-129.57967L528.96144-.38636l254.24868,254.24868ZM440.94105,253.87116l88.01154,88.01154,88.03808-88.03808-46.4611-46.4611c-22.94767-22.94767-60.1532-22.94767-83.10087,0l-46.48765,46.48765Z" fill="#101315"/>
  <path d="M959.23853,679.21958l-88.01762,88.01762-259.14551-259.14551c-45.90054-45.90054-45.90054-120.32002,0-166.22056l88.01762-88.01762,259.14551,259.14551c45.90054,45.90054,45.90054,120.32002,0,166.22056Z" fill="#fff"/>
  <g>
    <path d="M1000.79248,720.78267l-186.57254,186.57254-425.36994-425.36994,311.24154-311.24154,300.70094,300.70094c68.85279,68.85279,68.85279,180.48522,0,249.33801ZM864.09095,691.24706l53.58295-53.58295c22.91645-22.91645,22.93414-60.20212.0177-83.11857l-217.58237-217.58237-46.46995,46.46995c-22.91645,22.91645-22.93414,60.20212-.0177,83.11857l210.46936,224.69537Z" fill="#fff"/>
    <path d="M814.21668,914.37666l-432.38149-432.39118,318.25181-318.25666,304.21336,304.20851c70.67201,70.67686,70.67201,185.67395,0,256.35565l-190.08368,190.08368ZM395.86879,481.98548l418.34788,418.35758,183.06687-183.06687c66.80502-66.80986,66.80502-175.51703,0-242.32204l-297.19655-297.19171-304.2182,304.22305ZM863.97396,698.38217l-213.97377-228.43866c-24.73327-24.72357-24.72357-65.15742.12599-90.01668l49.98019-49.98019,221.09718,221.09233c24.83988,24.84472,24.83018,65.27857-.01938,90.13298l-57.21022,57.21022ZM700.10638,343.98025l-42.96339,42.96339c-20.98257,20.98742-20.98257,55.1265-.00969,76.09938l207.07326,221.07295,49.96081-49.96081c20.98257-20.98742,20.99226-55.12165.01938-76.09938l-214.08037-214.07553Z" fill="#101315"/>
  </g>
  <path d="M871.22092,767.23719l-259.14551,259.14551c-45.90054,45.90054-120.32002,45.90054-166.22056,0l-259.14551-259.14551,259.14551-259.14551c45.90054-45.90054,120.32002-45.90054,166.22056,0l259.14551,259.14551Z" fill="#fff"/>
  <g>
    <path d="M829.67812,891.89707l-300.69898,300.69898L59.599,723.21591l425.3434-425.3434,344.73572,344.73572c68.83921,68.83921,68.83921,180.44963,0,249.28884ZM269.82864,767.2438l217.58237,217.58237c22.91645,22.91645,60.18443,22.91645,83.10087,0l217.59121-217.59121-217.58237-217.58237c-22.91645-22.91645-60.18443-22.91645-83.10087,0l-217.59121,217.59121Z" fill="#101315"/>
    <path d="M528.9797,1199.61364L52.58327,723.2172l432.35726-432.36211,348.24284,348.24284c70.66232,70.66717,70.66232,185.64972,0,256.31204l-304.20367,304.20367ZM66.61688,723.2172l462.36283,462.36283,297.18686-297.18686c66.79533-66.79533,66.79533-175.48311,0-242.27843l-341.22603-341.22603L66.61688,723.2172ZM528.96032,1006.98104c-17.0332,0-33.03907-6.61944-45.0568-18.64687l-221.09233-221.09233,221.10203-221.09718c12.01773-12.02258,28.0236-18.64202,45.0568-18.64202,17.03804,0,33.03907,6.61944,45.0568,18.64202l221.09718,221.09233-221.10687,221.09718c-12.01773,12.02742-28.01876,18.64687-45.0568,18.64687ZM276.8448,767.24183l214.07553,214.07553c10.14723,10.14723,23.65749,15.73935,38.04,15.73935s27.89277-5.59212,38.04-15.73935l214.09007-214.08037-214.08037-214.07553c-10.14723-10.14723-23.65749-15.73451-38.04-15.73451s-27.89277,5.58728-38.04,15.73451l-214.08522,214.08037Z" fill="#101315"/>
  </g>
  <path d="M186.57088,767.65252l-88.2945-88.2945c-45.90054-45.90054-45.90054-120.32002,0-166.22056L357.97567,253.43817l88.2945,88.2945c45.90054,45.90054,45.90054,120.32002,0,166.22056l-259.69928,259.69928Z" fill="#fff"/>
  <g>
    <path d="M487.83571,549.50217l-301.25836,301.25836-129.85396-129.85396c-68.74049-68.74049-68.74934-180.58867,0-249.33801L357.96405,170.32789l129.85396,129.85396c68.74049,68.74049,68.74934,180.58867.0177,249.32032ZM186.55965,684.54109l218.15749-218.15749c22.91645-22.91645,22.91645-60.18443,0-83.10087l-46.73539-46.73539-218.13979,218.13979c-22.91645,22.91645-22.93414,60.20212-.0177,83.11857l46.73539,46.73539Z" fill="#fff"/>
    <path d="M186.57613,857.77703l-133.3629-133.3629c-70.67686-70.67686-70.67686-185.67395,0-256.35565L357.96448,163.31207l133.3629,133.3629c34.18754,34.18269,53.0137,79.69985,53.0137,128.16813.00969,48.47313-18.81647,93.99029-52.99916,128.16813l-304.76579,304.76579ZM357.96448,177.34568L60.23004,475.07528c-66.80502,66.80986-66.80502,175.51703,0,242.32204l126.34609,126.34609,297.74898-297.74898c32.30734-32.30734,50.09649-75.32888,50.09649-121.15133-.00485-45.8176-17.79884-88.84399-50.11103-121.15133l-126.34609-126.34609ZM186.56159,691.5592l-50.24672-50.24672c-24.84472-24.84472-24.83503-65.27857.01938-90.13298l221.64961-221.64961,50.24187,50.24672c12.02258,12.01773,18.64202,28.0236,18.64202,45.0568s-6.61944,33.03907-18.64202,45.0568l-221.66414,221.66899ZM357.98386,343.5635l-214.6328,214.6328c-10.14723,10.14723-15.73935,23.66233-15.7442,38.04969-.00485,14.3922,5.58243,27.9073,15.72481,38.04969l43.22991,43.22991,214.64734-214.65219c10.14723-10.14723,15.73451-23.65749,15.73451-38.04s-5.58728-27.89277-15.73451-38.04l-43.22507-43.22991Z" fill="#101315"/>
  </g>
</svg>