<?xml version="1.0" encoding="UTF-8"?>
<svg id="Layer_25" data-name="Layer 25" xmlns="http://www.w3.org/2000/svg" viewBox="0 0 450.04 450.04">
  <defs>
    <style>
      .cls-1 {
        fill: #fc0;
      }

      .cls-2 {
        fill: #00a651;
      }

      .cls-3 {
        fill: #333391;
      }

      .cls-4 {
        fill: #00a8de;
      }

      .cls-5 {
        fill: #9c298c;
      }

      .cls-6 {
        fill: #ed1c24;
      }

      .cls-7 {
        fill: #ff0098;
      }
    </style>
  </defs>
  <polygon class="cls-2" points="207.24344 250.1606 328.63193 371.54867 450.02 250.16018 207.24344 250.1606"/>
  <polygon class="cls-3" points="85.85516 371.54857 328.63172 371.54855 207.24343 250.16028 85.85516 371.54857"/>
  <polygon class="cls-6" points="207.24343 250.16028 293.07791 250.16019 293.07782 164.32571 207.24343 250.16028"/>
  <polygon class="cls-4" points="378.91235 164.32568 293.07788 164.32571 293.07791 250.16019 378.91238 250.16016 378.91235 164.32568"/>
  <polygon class="cls-1" points="171.68936 285.71382 85.85516 371.54857 85.85461 199.87961 171.68936 285.71382"/>
  <polygon class="cls-7" points="85.85442 78.49133 85.85448 164.32581 .02 164.32586 85.85442 78.49133"/>
  <polygon class="cls-5" points="85.85461 199.87961 146.54882 260.57369 146.54868 139.18541 85.85448 78.49133 85.85461 199.87961"/>
</svg>