<?xml version="1.0" encoding="UTF-8"?>
<svg id="Layer_23" data-name="Layer 23" xmlns="http://www.w3.org/2000/svg" viewBox="0 0 450.04 450.04">
  <defs>
    <style>
      .cls-1 {
        fill: #fc0;
      }

      .cls-2 {
        fill: #00a651;
      }

      .cls-3 {
        fill: #333391;
      }

      .cls-4 {
        fill: #9c298c;
      }

      .cls-5 {
        fill: #ed1c24;
      }

      .cls-6 {
        fill: #ff0098;
      }

      .cls-7 {
        fill: #46c7f4;
      }
    </style>
  </defs>
  <polygon class="cls-2" points="327.58499 263.62377 218.39659 154.43574 109.20856 263.62414 327.58499 263.62377"/>
  <polygon class="cls-3" points="218.39677 154.43571 372.81223 308.85115 372.81222 154.4357 218.39677 154.43571"/>
  <polygon class="cls-5" points="250.37734 340.83157 327.58507 340.83149 327.58499 263.62377 250.37734 340.83157"/>
  <polygon class="cls-7" points="450.01996 231.64337 372.81224 231.6434 372.81226 308.85113 450.01999 308.8511 450.01996 231.64337"/>
  <polygon class="cls-1" points="109.20821 263.62377 109.20856 372.81198 .02 263.62412 109.20821 263.62377"/>
  <polygon class="cls-6" points="450.02 231.64337 372.81227 231.64342 372.81222 154.4357 450.02 231.64337"/>
  <polygon class="cls-4" points="295.60445 77.22802 218.39673 77.22807 295.6045 154.43574 372.81222 154.4357 295.60445 77.22802"/>
</svg>