<?xml version="1.0" encoding="UTF-8"?>
<svg id="Layer_24" data-name="Layer 24" xmlns="http://www.w3.org/2000/svg" viewBox="0 0 450.04 450.04">
  <defs>
    <style>
      .cls-1 {
        fill: #fc0;
      }

      .cls-2 {
        fill: #00a651;
      }

      .cls-3 {
        fill: #333391;
      }

      .cls-4 {
        fill: #00a8de;
      }

      .cls-5 {
        fill: #9c298c;
      }

      .cls-6 {
        fill: #ed1c24;
      }

      .cls-7 {
        fill: #ff0098;
      }
    </style>
  </defs>
  <polygon class="cls-2" points="159.11931 450.02 268.30755 340.83138 159.11893 231.64313 159.11931 450.02"/>
  <polygon class="cls-3" points="213.71324 286.23722 368.12901 440.65297 368.129 286.23721 213.71324 286.23722"/>
  <polygon class="cls-6" points="236.32686 231.6434 236.32678 154.43552 159.1189 154.4356 236.32686 231.6434"/>
  <polygon class="cls-4" points="236.32675 77.22764 159.11887 77.22766 159.1189 154.43555 236.32678 154.43552 236.32675 77.22764"/>
  <polygon class="cls-1" points="159.11862 .02 236.32675 77.22764 81.91099 77.22813 159.11862 .02"/>
  <polygon class="cls-7" points="236.32686 231.6434 159.11898 231.64345 159.11893 154.43557 236.32686 231.6434"/>
  <polygon class="cls-5" points="268.30736 231.64325 322.90152 286.23753 213.71309 286.23741 159.11893 231.64313 268.30736 231.64325"/>
</svg>