<?xml version="1.0" encoding="UTF-8"?>
<svg id="Layer_22" data-name="Layer 22" xmlns="http://www.w3.org/2000/svg" viewBox="0 0 450.04 450.04">
  <defs>
    <style>
      .cls-1 {
        fill: #fc0;
      }

      .cls-2 {
        fill: #00a651;
      }

      .cls-3 {
        fill: #333391;
      }

      .cls-4 {
        fill: #00a8de;
      }

      .cls-5 {
        fill: #9c298c;
      }

      .cls-6 {
        fill: #ed1c24;
      }

      .cls-7 {
        fill: #ff0098;
      }
    </style>
  </defs>
  <polygon class="cls-2" points="210.49023 365.33341 350.80343 225.01993 210.48995 84.70674 210.49023 365.33341"/>
  <polygon class="cls-3" points="210.48995 84.70674 12.05694 283.13977 210.48996 283.13976 210.48995 84.70674"/>
  <polygon class="cls-6" points="350.80335 365.33326 280.64661 295.17667 210.49002 365.33341 350.80335 365.33326"/>
  <polygon class="cls-4" points="450.0199 125.80338 350.80339 125.80342 350.80343 225.01993 450.01994 225.01989 450.0199 125.80338"/>
  <polygon class="cls-1" points="350.80298 84.70659 350.80343 225.01993 210.48964 84.70704 350.80298 84.70659"/>
  <polygon class="cls-7" points="350.80343 225.01993 450.01994 225.01986 450.02 324.23637 350.80343 225.01993"/>
  <polygon class="cls-5" points="140.33333 353.29647 210.48996 283.13976 70.17663 283.13984 .02 353.29655 140.33333 353.29647"/>
</svg>