<?xml version="1.0" encoding="UTF-8"?>
<svg id="CAT" xmlns="http://www.w3.org/2000/svg" viewBox="0 0 450.04 450.04">
  <defs>
    <style>
      .cls-1 {
        fill: #fc0;
      }

      .cls-2 {
        fill: #00a651;
      }

      .cls-3 {
        fill: #333391;
      }

      .cls-4 {
        fill: #00a8de;
      }

      .cls-5 {
        fill: #9c298c;
      }

      .cls-6 {
        fill: #ed1c24;
      }

      .cls-7 {
        fill: #ff0098;
      }
    </style>
  </defs>
  <polygon class="cls-2" points="168.76996 140.64495 56.27005 253.14504 168.77015 365.64495 168.76996 140.64495"/>
  <polygon class="cls-3" points="168.76996 140.64495 168.77001 365.64495 281.26999 253.14492 168.76996 140.64495"/>
  <polygon class="cls-1" points="281.27001 365.64472 168.77001 365.64495 281.26979 253.14472 281.27001 365.64472"/>
  <polygon class="cls-6" points=".02006 196.89507 56.27003 140.64504 .02 84.39507 .02006 196.89507"/>
  <polygon class="cls-7" points="112.52002 196.89505 56.27003 140.64504 112.52004 84.39505 112.52002 196.89505"/>
  <polygon class="cls-4" points="56.27003 140.64504 .02004 196.89505 56.27005 253.14504 112.52004 196.89503 56.27003 140.64504"/>
  <polygon class="cls-5" points="337.52 309.39471 281.27001 365.64472 393.77001 365.6447 450.02 309.39469 337.52 309.39471"/>
</svg>