<?xml version="1.0" encoding="UTF-8"?>
<svg id="Layer_21" data-name="Layer 21" xmlns="http://www.w3.org/2000/svg" viewBox="0 0 450.04 450.04">
  <defs>
    <style>
      .cls-1 {
        fill: #fc0;
      }

      .cls-2 {
        fill: #00a651;
      }

      .cls-3 {
        fill: #333391;
      }

      .cls-4 {
        fill: #00a8de;
      }

      .cls-5 {
        fill: #9c298c;
      }

      .cls-6 {
        fill: #ed1c24;
      }

      .cls-7 {
        fill: #ff0098;
      }
    </style>
  </defs>
  <polygon class="cls-2" points=".02 225.02021 203.9067 225.02 203.90649 21.1333 .02 225.02021"/>
  <polygon class="cls-3" points=".02 225.02001 203.90671 428.9067 203.9067 225.02 .02 225.02001"/>
  <polygon class="cls-4" points="377.93514 152.93517 305.85033 225.02003 377.93519 297.10483 450.02 225.01997 377.93514 152.93517"/>
  <polygon class="cls-1" points="305.85029 174.04823 203.90718 275.99182 203.9067 72.10512 305.85029 174.04823"/>
  <polygon class="cls-6" points="275.99181 305.85009 203.90702 377.93497 275.99191 450.01976 275.99181 305.85009"/>
  <polygon class="cls-7" points="275.99158 144.18991 203.9067 72.10512 275.99149 .02024 275.99158 144.18991"/>
  <polygon class="cls-5" points="305.85033 275.99158 305.85029 174.04823 203.90698 275.99162 203.90702 377.93497 305.85033 275.99158"/>
</svg>