<?xml version="1.0" encoding="UTF-8"?>
<svg id="DOG" xmlns="http://www.w3.org/2000/svg" viewBox="0 0 450.04 450.04">
  <defs>
    <style>
      .cls-1 {
        fill: #fc0;
      }

      .cls-2 {
        fill: #00a651;
      }

      .cls-3 {
        fill: #333391;
      }

      .cls-4 {
        fill: #00a8de;
      }

      .cls-5 {
        fill: #9c298c;
      }

      .cls-6 {
        fill: #ed1c24;
      }

      .cls-7 {
        fill: #ff0098;
      }
    </style>
  </defs>
  <polygon class="cls-2" points="150.01996 300.01995 300.01993 300.01995 300.01993 150.01999 150.01996 300.01995"/>
  <polygon class="cls-1" points="75.01998 375.01993 225.01994 225.01997 75.01998 225.01997 75.01998 375.01993"/>
  <polygon class="cls-3" points="375.01991 150.02005 450.02 225.01992 300.02004 225.02014 375.01991 150.02005"/>
  <polygon class="cls-6" points="75.01998 225.01997 75.01998 150.01999 .02 150.01999 75.01998 225.01997"/>
  <polygon class="cls-7" points="150.01996 300.01995 150.01996 375.01993 75.01998 375.01993 150.01996 300.01995"/>
  <polygon class="cls-4" points="300.01993 300.01995 225.01995 300.01995 225.01995 375.01993 300.01993 375.01993 300.01993 300.01995"/>
  <polygon class="cls-5" points="300.01993 150.01999 300.01986 225.01997 375.01991 150.02005 375.01997 75.02007 300.01993 150.01999"/>
</svg>