<?xml version="1.0" encoding="UTF-8"?>
<svg id="Layer_15" data-name="Layer 15" xmlns="http://www.w3.org/2000/svg" viewBox="0 0 450.04 450.04">
  <defs>
    <style>
      .cls-1 {
        fill: #fc0;
      }

      .cls-2 {
        fill: #00a651;
      }

      .cls-3 {
        fill: #333391;
      }

      .cls-4 {
        fill: #ec008c;
      }

      .cls-5 {
        fill: #00a8de;
      }

      .cls-6 {
        fill: #9c298c;
      }

      .cls-7 {
        fill: #ed1c24;
      }
    </style>
  </defs>
  <polygon class="cls-2" points="213.94362 91.31766 106.98186 198.27963 213.94384 305.24139 213.94362 91.31766"/>
  <polygon class="cls-3" points="213.94362 91.31766 213.94363 305.24139 320.90549 198.27952 213.94362 91.31766"/>
  <polygon class="cls-1" points="320.90549 198.27952 396.53906 273.91286 245.27214 273.91309 320.90549 198.27952"/>
  <polygon class="cls-7" points="267.42477 358.7223 213.94381 305.24139 160.4629 358.72234 267.42477 358.7223"/>
  <polygon class="cls-4" points=".02 198.27965 53.50092 144.79871 106.98186 198.27963 .02 198.27965"/>
  <polygon class="cls-5" points="160.46279 144.79869 106.98184 91.31777 53.50092 144.79871 106.98186 198.27963 160.46279 144.79869"/>
  <polygon class="cls-6" points="396.53906 273.91286 450.02 327.39378 343.05814 327.39381 289.5772 273.91288 396.53906 273.91286"/>
</svg>