<?xml version="1.0" encoding="UTF-8"?>
<svg id="piggy" xmlns="http://www.w3.org/2000/svg" viewBox="0 0 450.04 450.04">
  <defs>
    <style>
      .cls-1 {
        fill: #fc0;
      }

      .cls-2 {
        fill: #00a651;
      }

      .cls-3 {
        fill: #333391;
      }

      .cls-4 {
        fill: #00a8de;
      }

      .cls-5 {
        fill: #9c298c;
      }

      .cls-6 {
        fill: #ed1c24;
      }

      .cls-7 {
        fill: #ff0098;
      }
    </style>
  </defs>
  <polygon class="cls-2" points=".02 280.25736 147.0471 280.25736 147.0471 133.23026 .02 280.25736"/>
  <polygon class="cls-1" points="190.11055 264.82779 398.03827 264.82781 294.07442 160.86394 190.11055 264.82779"/>
  <polygon class="cls-3" points="398.03807 160.86395 398.03827 264.82781 294.07421 160.86416 398.03807 160.86395"/>
  <polygon class="cls-6" points="294.07421 160.86416 220.56065 160.86416 220.56065 234.37771 294.07421 160.86416"/>
  <polygon class="cls-7" points="147.0471 307.89126 147.0471 234.37771 220.56065 234.37771 147.0471 307.89126"/>
  <polygon class="cls-4" points="220.56065 160.86416 147.0471 160.86416 147.0471 234.37771 220.56065 234.37771 220.56065 160.86416"/>
  <polygon class="cls-5" points="450.02 212.84588 398.03807 160.86395 398.03807 264.82781 450.02 316.80974 450.02 212.84588"/>
</svg>