<?xml version="1.0" encoding="UTF-8"?>
<svg id="Layer_1" data-name="Layer 1" xmlns="http://www.w3.org/2000/svg" width="200" height="200" viewBox="0 0 200 200">
  <g>
    <path d="M198.9301,92.42815l-97.21087,37.09015h-3.35795c-30.48242-12.79355-62.92497-22.43141-93.26625-35.35411-2.66143-1.13353-5.01238-1.24564-4.94766-4.80582.05009-2.75577,1.60029-2.99634,3.68776-3.95804l94.19142-35.69064,2.22248-.327,98.78961,37.43365c1.37748,1.30102,1.13737,4.23227-.10853,5.61181Z" fill="#0e1114"/>
    <path d="M198.93007,142.43024c1.89966,1.75684,1.13866,5.40158-1.25004,6.35879l-97.42651,36.69224c-32.98849-11.78107-65.90103-24.47319-98.60697-37.2029-2.80353-2.11513-1.72953-6.09315,1.59857-6.91267l32.69941-12.28962c19.5463,6.15095,38.61154,15.48869,58.02955,21.77192,5.94017,1.9221,6.18961,1.92296,12.13235,0,19.29752-6.24432,38.32819-15.44791,57.68414-21.77298,8.62411,3.0244,17.25546,6.13817,25.7633,9.48332,1.93231.75976,8.23279,2.81447,9.3762,3.87192Z" fill="#0e1114"/>
    <path d="M199.89203,114.55752c-.24075,2.01485.6915,5.56799-.85353,7.02581l-98.78948,37.43361c-32.34056-11.16269-64.22211-24.21238-96.4139-36.01763-4.06489-1.05198-4.0852-4.03111-3.65012-7.81046.06657-.57828-.21827-.77633.57687-.58785l97.01613,36.65654,3.74286.05341,98.37117-36.75343Z" fill="#0e1114"/>
    <path d="M199.89203,155.54058c-.24075,2.01485.6915,5.56799-.85353,7.02581l-98.78948,37.43361c-32.34056-11.16269-64.22211-24.21238-96.4139-36.01763-4.06489-1.05198-4.0852-4.03111-3.65012-7.81046.06657-.57828-.21827-.77633.57687-.58785l97.01613,36.65654,3.74286.05341,98.37117-36.75343Z" fill="#0e1114"/>
    <path d="M199.89203,99.8263c-.24073,2.01485.69151,5.568-.85352,7.02582l-98.78948,37.43361c-32.34056-11.16269-64.22211-24.21238-96.4139-36.01763-4.06489-1.05198-4.0852-4.03111-3.65012-7.81046.06657-.57828-.21827-.77633.57687-.58785l97.01613,36.65654,3.74286.05341,98.37116-36.75344Z" fill="#0e1114"/>
  </g>
  <g>
    <path d="M97.4286,45.85734l-6.99408-.33653-.41142,41.30858,10.03616,13.29278-2.63066-54.26484Z" fill="#fff"/>
    <path d="M70.88974,2.00981c-.2027,5.7098-.12882,4.97133,5.30211,5.81417V2.00981l57.73406-2.00981c.21852,8.33869.41273,8.19173-7.43663,11.86693-.22623.36018.10673,6.00056-.02114,7.10535-.28373,2.45151-5.39875,2.67096-7.24466,3.33537l-.02133,15.53857c-2.55858,5.78571-35.68737,5.28415-38.88645.19748.00001-.0011.00001-12.95194.00001-12.95194l4.51661.60236v10.54138c1.1091,1.09723,2.90359.87803,4.32024,1.30512v-11.44493c2.77285-.28187,25.06669,1.87503,23.5285-2.06802-.2719-.90497-1.89162-.77382-2.62335-.75064-10.32423.32702-20.71831.87577-30.92691-1.29068-5.50748-1.33346-6.50496-1.29186-6.08094-7.33559,13.96533,1.92506,31.30724,3.46245,45.17626.71334,2.27881-.53746,1.80571-2.37805.0979-2.32745-1.93021.05719-4.13204.50099-6.09948.60813-14.27355.06158-33.89159,2.43847-46.44099-4.91565.00045-.00162.00045-6.71933.00045-6.71933h5.10573Z" fill="#0e1114"/>
    <path d="M111.53923,43.76507v43.87029l-9.93817,13.93303-2.73513,1.24354-10.89162-15.17658v-43.87029c7.51757.96505,16.11209,1.13124,23.56492,0ZM91.31267,46.67457v39.55528c2.50062,3.60029,4.88527,7.30552,7.41712,10.88106.1195.16875.10807.59209.44093.15934-3.66015-7.52806-2.42631-41.93421-2.55492-50.49632-1.47883.39103-4.26441-.78056-5.30313-.09935Z" fill="#0e1114"/>
  </g>
</svg>