<?xml version="1.0" encoding="UTF-8"?>
<svg id="Layer_1" data-name="Layer 1" xmlns="http://www.w3.org/2000/svg" width="800" height="906.5559" viewBox="0 0 800 906.5559">
  <path d="M800.17062,442.3806v14.51694c-1.51491,3.35424-.44545,7.50139-.81952,11.15708-2.54222,24.84431-15.56713,51.89302-31.47506,70.87394l-366.71613,367.21573L34.64304,540.38027c-16.80189-19.67182-27.92484-43.17392-32.08374-68.81367-.74393-4.58635-.28329-10.03055-2.38869-13.94322v-15.24279c2.11579-2.26534,1.18869-5.51374,1.54155-8.25753,3.60346-28.01972,15.12773-53.99333,33.6569-75.22512l235.19691-235.20752,1.37577-.63209,2.27579,2.11592.36323-.32948L400.5336-.41163l125.55693,124.91412,2.06713.60838,2.321-2.09185.36342.32966,232.67803,232.64602c20.72861,23.01208,35.48356,53.18823,35.89487,84.62928l.75563,1.75662ZM271.41364,133.94816L39.72472,365.43049c-43.71225,50.25505-40.8852,128.34377,5.80781,175.67543l95.93556,95.74915,230.76361-230.03071c44.04786-50.02231,43.4829-124.30292-1.08006-173.86973-30.40673-33.82101-67.07149-64.38477-98.00221-97.99423l-1.73579-1.01225ZM478.57353,328.05971c-.35365-4.55944,0-9.85112,0-14.51694,0-6.28365,6.82385-18.98803,10.91085-23.93139l39.50996-39.62317,2.06499-.60563,166.77133,166.48522c16.71805,17.71974,18.5236,44.98828,3.25645,64.26589l-41.64474,41.88863c-.50644,1.86321,4.39821,13.08125,5.33578,16.17233,10.13049,33.39918,7.75254,68.51401-6.88717,100.16433l100.19349-99.78454c44.02369-47.52493,46.58196-120.65129,5.43601-170.96657l-233.14099-233.65972-123.59804,123.1243,71.79216,73.16839c1.7969.95935.01413-1.99763-.00011-2.18114ZM393.46026,143.51782c-21.96456,2.75138-38.52375,30.16573-54.65668,43.34412l-1.01239,1.73553,63.36872,63.55874,62.92017-63.45911-1.0829-1.84943c-22.33317-19.12421-35.3962-47.60647-69.53693-43.32985ZM530.47915,259.48034c-14.30975,17.5356-42.63225,33.37992-44.63448,57.70308-.94688,11.5028,3.39821,22.65906,10.85897,31.21871l139.77489,139.69657c7.4608,7.38299,11.91434,17.55201,17.88754,25.6651.45409.61676.6773,1.43718,1.65871,1.17284,11.22777-12.40937,25.51446-23.68359,36.35216-36.25339,14.77394-17.13515,16.05882-38.74343,1.09733-56.28214l-162.99511-162.92077ZM397.84411,405.58372c-7.88792.52928-16.2848,3.85941-22.36494,8.84272l-164.72973,165.40252,162.5523,162.69796c16.98026,14.3024,39.3703,14.15482,55.9173-.72416l161.82466-162.50039-164.73051-164.87515c-7.95667-6.1326-18.408-9.5186-28.46909-8.8435Z" fill="#ff0098"/>
  <path d="M271.41364,133.94816l1.73579,1.01225c30.93072,33.60947,67.59548,64.17322,98.00221,97.99423,44.56297,49.56681,45.12793,123.84741,1.08006,173.86973l-230.76361,230.03071-95.93556-95.74915c-46.69301-47.33166-49.52006-125.42039-5.80781-175.67543l231.68893-231.48234ZM271.41364,248.63197l-169.62833,169.41406c-15.74139,17.94289-15.82845,45.98631,0,63.91194l40.30909,40.25264,168.07746-168.00102c18.0901-20.81422,18.12075-46.69488,0-67.54253-11.14514-12.82231-25.62145-24.24664-37.02243-37.02284l-1.73579-1.01225Z" fill="#ff0098"/>
  <path d="M397.84411,405.58372c10.06109-.6751,20.51242,2.7109,28.46909,8.8435l164.73051,164.87515-161.82466,162.50039c-16.547,14.87898-38.93704,15.02656-55.9173.72416l-162.5523-162.69796,164.72973-165.40252c6.08013-4.98331,14.47702-8.31343,22.36494-8.84272Z" fill="#ff0098"/>
  <path d="M478.57353,328.05971c.01423.18351,1.797,3.14049.00011,2.18114l-71.79216-73.16839,123.59804-123.1243,233.14099,233.65972c41.14595,50.31528,38.58768,123.44164-5.43601,170.96657l-100.19349,99.78454c14.63971-31.65033,17.01765-66.76516,6.88717-100.16433-.93757-3.09108-5.84222-14.30912-5.33578-16.17233l41.64474-41.88863c15.26714-19.27761,13.46159-46.54615-3.25645-64.26589l-166.77133-166.48522-2.06499.60563-39.50996,39.62317c-4.08701,4.94336-10.91085,17.64774-10.91085,23.93139,0,4.66581-.35365,9.9575,0,14.51694Z" fill="#ff0098"/>
  <path d="M530.47915,259.48034l162.99511,162.92077c14.96149,17.53871,13.67661,39.147-1.09733,56.28214-10.8377,12.5698-25.12439,23.84402-36.35216,36.25339-.98141.26433-1.20463-.55608-1.65871-1.17284-5.9732-8.11309-10.42673-18.28211-17.88754-25.6651l-139.77489-139.69657c-7.46076-8.55965-11.80585-19.71591-10.85897-31.21871,2.00223-24.32317,30.32473-40.16748,44.63448-57.70308Z" fill="#ff0098"/>
  <path d="M393.46026,143.51782c34.14074-4.27662,47.20377,24.20565,69.53693,43.32985l1.0829,1.84943-62.92017,63.45911-63.36872-63.55874,1.01239-1.73553c16.13293-13.17839,32.69212-40.59274,54.65668-43.34412Z" fill="#ff0098"/>
  <path d="M271.41364,248.63197l1.73579,1.01225c11.40098,12.7762,25.87729,24.20052,37.02243,37.02284,18.12075,20.84765,18.0901,46.72831,0,67.54253l-168.07746,168.00102-40.30909-40.25264c-15.82845-17.92562-15.74139-45.96904,0-63.91194l169.62833-169.41406ZM271.41364,259.51968l-164.54484,164.33495c-12.50387,14.99567-12.79946,36.74901-.35515,51.92399l35.58074,35.54429,163.72132-163.64636c29.60038-37.14533-9.13325-62.7531-32.66629-87.14462l-1.73579-1.01225Z" fill="#ff0098"/>
  <path d="M271.41364,259.51968l1.73579,1.01225c23.53304,24.39152,62.26667,49.99928,32.66629,87.14462l-163.72132,163.64636-35.58074-35.54429c-12.44432-15.17498-12.14873-36.92831.35515-51.92399l164.54484-164.33495Z" fill="#ff0098"/>
</svg>