<?xml version="1.0" encoding="UTF-8"?>
<svg id="Layer_1" data-name="Layer 1" xmlns="http://www.w3.org/2000/svg" width="1800" height="2632.11547" viewBox="0 0 1800 2632.11547">
  <g>
    <path d="M118.11916,2154.39111v34.71827H50.19834v35.72192h60.37292v34.71827h-60.37292v68.4124H8.44425v-173.57086h109.67491Z" fill="#101315"/>
    <path d="M52.31183,2330.08116H6.33501v-177.80121h113.8941v38.94662H52.31183v31.48735h60.37551v38.94662h-60.37551v68.42062ZM10.55973,2325.85644h37.52738v-68.42062h60.37551v-30.49718h-60.37551v-39.93679h67.91729v-30.49718H10.55973v169.35177Z" fill="#101315"/>
  </g>
  <g>
    <path d="M197.06993,2330.48136c-39.49075,0-68.42264-23.90337-68.42264-75.72474v-27.16013c0-52.31296,28.93189-75.72474,68.42264-75.72474,39.50099,0,68.42264,23.41179,68.42264,75.72474v27.16013c0,51.82137-28.92165,75.72474-68.42264,75.72474ZM170.41163,2254.75661c0,28.43006,9.29917,41.00648,26.65831,41.00648s26.66855-12.57641,26.66855-41.00648v-27.16013c0-28.43006-9.30941-41.00648-26.66855-41.00648s-26.65831,12.57641-26.65831,41.00648v27.16013Z" fill="#101315"/>
    <path d="M197.06617,2332.58959c-44.1615,0-70.53298-29.09444-70.53298-77.82722v-27.16361c0-49.47541,25.71137-77.84373,70.53298-77.84373,44.82987,0,70.54123,28.36832,70.54123,77.84373v27.16361c0,48.73278-26.37148,77.82722-70.54123,77.82722ZM197.06617,2153.97974c-42.13991,0-66.30827,26.83356-66.30827,73.61901v27.16361c0,46.76895,24.16836,73.6025,66.30827,73.6025,42.14816,0,66.31652-26.83356,66.31652-73.6025v-27.16361c0-46.78545-24.16836-73.61901-66.31652-73.61901ZM197.06617,2297.86769c-19.08549,0-28.76439-14.50596-28.76439-43.10532v-27.16361c0-28.61586,9.67889-43.12183,28.76439-43.12183,19.09374,0,28.78089,14.50596,28.78089,43.12183v27.16361c0,28.59936-9.68715,43.10532-28.78089,43.10532ZM197.06617,2188.70164c-10.53704,0-24.53967,4.02668-24.53967,38.89711v27.16361c0,26.15694,8.02861,38.88061,24.53967,38.88061,16.52756,0,24.55617-12.72366,24.55617-38.88061v-27.16361c0-34.87042-14.01088-38.89711-24.55617-38.89711Z" fill="#101315"/>
  </g>
  <g>
    <path d="M378.56762,2327.96198l-28.93189-65.64723h-21.62979v65.64723h-41.7541v-173.57086h65.40144c39.99258,0,65.65747,18.37303,65.65747,54.58654,0,22.65393-10.06727,37.99551-27.6722,46.04523l34.71827,72.93909h-45.7892ZM346.62477,2227.59648c16.84707,0,28.92165-2.27359,28.92165-18.61882,0-16.59103-12.07458-19.86827-28.92165-19.86827h-18.61882v38.4871h18.61882Z" fill="#101315"/>
    <path d="M427.7011,2330.08116h-50.51508l-28.92941-65.64815h-18.13658v65.64815h-45.97681v-177.80121h67.51297c43.06407,0,67.76876,20.66151,67.76876,56.70363,0,21.94873-9.31583,38.15448-26.97383,47.03299l35.24999,74.06458ZM379.94199,2325.85644h41.07548l-34.21031-71.85321,1.95558-.89115c17.54248-8.03687,26.43749-22.87289,26.43749-44.1285,0-33.35217-23.16169-52.47892-63.54405-52.47892h-63.28825v169.35177h37.52738v-65.64815h25.11727l28.92941,65.64815ZM346.62283,2229.71111h-20.72752v-42.70926h20.72752c15.34761,0,31.03352,2.60744,31.03352,21.98173,0,19.12675-15.3311,20.72752-31.03352,20.72752ZM330.12002,2225.48639h16.5028c17.3857,0,26.8088-2.62395,26.8088-16.5028,0-12.9382-7.26949-17.75702-26.8088-17.75702h-16.5028v34.25982Z" fill="#101315"/>
  </g>
  <g>
    <path d="M524.71208,2242.44648l46.78261-88.05536h38.98892v173.57086h-39.23472v-98.09191l-35.72192,69.41606h-22.38765l-34.9743-68.67868v97.35453h-39.23472v-173.57086h38.73289l47.04889,88.05536Z" fill="#101315"/>
    <path d="M612.59852,2330.08116h-43.46013v-91.49154l-32.32074,62.80967h-24.97699l-31.56161-61.98453v90.6664h-43.46013v-177.80121h42.1069l45.77878,85.68256,45.52298-85.68256h42.37095v177.80121ZM573.3631,2325.85644h35.0107v-169.35177h-35.6048l-48.04791,90.43536-48.32021-90.43536h-35.35726v169.35177h35.0107v-104.06668l38.37727,75.38481h19.81162l39.1199-76.01191v104.69379Z" fill="#101315"/>
  </g>
  <g>
    <path d="M622.18951,2327.96198l60.37292-173.57086h40.24861l60.37292,173.57086h-44.51927l-9.30941-29.67951h-53.58289l-9.05338,29.67951h-44.52951ZM686.58729,2263.5642h31.9531l-15.85365-51.3093-16.09945,51.3093Z" fill="#101315"/>
    <path d="M786.1585,2330.08116h-49.04633l-9.30758-29.68854h-50.46557l-9.05179,29.68854h-49.07109l61.84426-177.80121h43.25385l61.84426,177.80121ZM740.2147,2325.85644h40.0028l-58.90676-169.35177h-37.24683l-58.90676,169.35177h39.99454l9.05179-29.68854h56.70363l9.30758,29.68854ZM721.4015,2265.67072h-37.6924l18.99473-60.53228,18.69768,60.53228ZM689.46858,2261.446h26.20645l-13.00421-42.08215-13.20224,42.08215Z" fill="#101315"/>
  </g>
  <g>
    <path d="M867.06084,2232.36896c-9.55521-12.31014-15.84341-24.88655-15.84341-40.49441,0-24.39496,21.384-40.00282,50.05985-40.00282,31.44103,0,49.54778,16.09945,49.54778,34.96406,0,19.13089-17.59469,33.96041-35.20986,47.56096l26.66855,29.9253c1.24945-5.03876,1.76152-10.81489,1.76152-17.34889h39.73654c0,18.35255-4.52669,35.20986-13.33427,49.0562l28.67586,31.93261h-46.02475l-7.55814-8.29552c-12.06434,7.04607-27.16013,10.81489-44.50903,10.81489-39.75703,0-62.39047-23.6371-62.39047-48.29834,0-22.38765,13.07824-37.72923,28.41982-49.81406ZM921.14556,2292.75212l-32.70072-35.96772c-5.53034,6.02193-9.05338,12.06434-9.05338,18.35255,0,12.33062,9.55521,20.62613,23.89313,20.62613,6.80027,0,12.84269-1.00365,17.86096-3.01096ZM897.25242,2211.25124c9.801-7.29186,16.84707-14.09214,16.84707-22.38765,0-6.04241-4.77248-10.07752-12.06434-10.07752-6.54424,0-11.57276,3.52303-11.57276,13.08848,0,6.04241,2.76517,12.8222,6.79003,19.37669Z" fill="#101315"/>
    <path d="M901.03452,2332.58959c-42.35445,0-64.50946-25.34831-64.50946-50.39956,0-24.44065,15.28985-40.21733,27.60919-50.18503-10.38026-13.84585-15.0258-26.28897-15.0258-40.13482,0-24.80371,21.45364-42.11516,52.16536-42.11516,30.41467,0,51.67028,15.24859,51.67028,37.0818,0,19.14325-15.99122,33.63271-34.24332,47.84163l22.3448,25.08426c.5941-3.71313.89115-7.92135.89115-12.78967v-2.11236h43.96347v2.11236c0,18.16959-4.42275,35.00245-12.82268,48.8318l30.77773,34.27632h-51.70328l-7.0467-7.73981c-12.31109,6.79916-27.13061,10.24824-44.07074,10.24824ZM901.27381,2153.97974c-28.22805,0-47.94064,15.57865-47.94064,37.89044,0,13.38377,4.75281,25.48033,15.39712,39.21066l1.28722,1.65028-1.65028,1.30372c-11.85726,9.32408-27.61744,24.47366-27.61744,48.15518,0,22.9389,20.71102,46.17484,60.28474,46.17484,16.87412,0,31.4791-3.5316,43.42713-10.52879l1.48525-.85815,8.08637,8.87851h40.34936l-26.56951-29.60603.85815-1.35323c8.16889-12.85568,12.64115-28.66537,12.98771-45.81178h-35.51403c-.11552,6.13904-.70962,11.30442-1.81531,15.74367l-.95716,3.87816-30.84374-34.58988,1.79881-1.38624c18.12008-14.01088,34.39184-28.03826,34.39184-45.8943,0-19.34129-19.50631-32.85708-47.44556-32.85708ZM903.28715,2297.86769c-15.55389,0-26.00842-9.12605-26.00842-22.72436,0-6.28757,3.14378-12.75667,9.61288-19.78686l1.55951-1.69979,36.30617,39.92028-2.82198,1.13869c-5.21489,2.09586-11.4942,3.15204-18.64817,3.15204ZM888.46763,2259.96075c-4.6868,5.51194-6.96418,10.49578-6.96418,15.18258,0,11.23841,8.54845,18.49964,21.7837,18.49964,5.2974,0,10.04196-.6106,14.1429-1.83181l-28.96242-31.85041ZM896.66128,2214.31399l-1.2047-1.96383c-4.71155-7.6738-7.10446-14.55547-7.10446-20.47998,0-9.65414,4.98385-15.19908,13.68082-15.19908,8.48244,0,14.17591,4.90133,14.17591,12.19557,0,9.06004-7.07145,16.18925-17.69101,24.07759l-1.85657,1.36973ZM902.03294,2180.89581c-6.36183,0-9.45611,3.59761-9.45611,10.97436,0,4.63729,1.7823,10.09972,5.28915,16.27176,8.54845-6.56812,14.11815-12.45962,14.11815-19.27527,0-4.83532-3.90291-7.97085-9.95119-7.97085Z" fill="#101315"/>
  </g>
  <g>
    <path d="M1175.60282,2154.39111v34.71827h-67.92081v35.72192h60.36268v34.71827h-60.36268v68.4124h-41.76434v-173.57086h109.68515Z" fill="#101315"/>
    <path d="M1109.78674,2330.08116h-45.97681v-177.80121h113.90235v38.94662h-67.92554v31.48735h60.36726v38.94662h-60.36726v68.42062ZM1068.03464,2325.85644h37.52738v-68.42062h60.36726v-30.49718h-60.36726v-39.93679h67.92554v-30.49718h-105.45292v169.35177Z" fill="#101315"/>
  </g>
  <g>
    <path d="M1254.54336,2330.48136c-39.49075,0-68.4124-23.90337-68.4124-75.72474v-27.16013c0-52.31296,28.92165-75.72474,68.4124-75.72474s68.43288,23.41179,68.43288,75.72474v27.16013c0,51.82137-28.94213,75.72474-68.43288,75.72474ZM1227.87481,2254.75661c0,28.43006,9.31965,41.00648,26.66855,41.00648,17.36938,0,26.66855-12.57641,26.66855-41.00648v-27.16013c0-28.43006-9.29917-41.00648-26.66855-41.00648-17.34889,0-26.66855,12.57641-26.66855,41.00648v27.16013Z" fill="#101315"/>
    <path d="M1254.54933,2332.58959c-44.1615,0-70.53298-29.09444-70.53298-77.82722v-27.16361c0-49.47541,25.71137-77.84373,70.53298-77.84373s70.53298,28.36832,70.53298,77.84373v27.16361c0,48.73278-26.37148,77.82722-70.53298,77.82722ZM1254.54933,2153.97974c-42.13166,0-66.30827,26.83356-66.30827,73.61901v27.16361c0,46.76895,24.17661,73.6025,66.30827,73.6025s66.30827-26.83356,66.30827-73.6025v-27.16361c0-46.78545-24.17661-73.61901-66.30827-73.61901ZM1254.54933,2297.86769c-19.09374,0-28.78089-14.50596-28.78089-43.10532v-27.16361c0-28.61586,9.68715-43.12183,28.78089-43.12183s28.78089,14.50596,28.78089,43.12183v27.16361c0,28.59936-9.68715,43.10532-28.78089,43.10532ZM1254.54933,2188.70164c-10.54529,0-24.55617,4.02668-24.55617,38.89711v27.16361c0,26.15694,8.03687,38.88061,24.55617,38.88061s24.55617-12.72366,24.55617-38.88061v-27.16361c0-34.87042-14.01088-38.89711-24.55617-38.89711Z" fill="#101315"/>
  </g>
  <g>
    <path d="M1480.57056,2154.39111v173.57086h-33.71461l-63.88571-96.0846v96.0846h-39.24496v-173.57086h33.20255l64.39778,97.35453v-97.35453h39.24496Z" fill="#101315"/>
    <path d="M1482.68409,2330.08116h-36.96628l-60.6313-91.211v91.211h-43.46839v-177.80121h36.45469l.62711.94066,60.51578,91.49154v-92.4322h43.46839v177.80121ZM1447.9952,2325.85644h30.46418v-169.35177h-35.01895v102.26787l-67.64499-102.26787h-29.95259v169.35177h35.01895v-100.98066l67.13341,100.98066Z" fill="#101315"/>
  </g>
  <g>
    <path d="M1505.35469,2327.96198v-173.57086h64.64357c39.49075,0,68.43288,19.37669,68.43288,74.20902v25.15282c0,54.34075-28.94213,74.20902-68.43288,74.20902h-64.64357ZM1596.66681,2253.75296v-25.15282c0-23.39131-5.03876-39.49075-26.66855-39.49075h-22.87924v104.13433h22.87924c21.62979,0,26.66855-16.09945,26.66855-39.49075Z" fill="#101315"/>
    <path d="M1570.00042,2330.08116h-66.75384v-177.80121h66.75384c46.15834,0,70.54949,26.38798,70.54949,76.32547v25.15027c0,63.09022-38.36902,76.32547-70.54949,76.32547ZM1507.4713,2325.85644h62.52912c44.01298,0,66.32477-24.25912,66.32477-72.10075v-25.15027c0-47.84163-22.31179-72.10075-66.32477-72.10075h-62.52912v169.35177ZM1570.00042,2295.35926h-25.00175v-108.35741h25.00175c25.36481,0,28.78089,21.02457,28.78089,41.60357v25.15027c0,20.579-3.41608,41.60357-28.78089,41.60357ZM1549.22339,2291.13454h20.77703c17.44346,0,24.55617-10.82584,24.55617-37.37885v-25.15027c0-26.55301-7.11271-37.37885-24.55617-37.37885h-20.77703v99.90797Z" fill="#101315"/>
  </g>
  <g>
    <path d="M1723.27072,2330.48136c-39.49075,0-68.4124-23.90337-68.4124-75.72474v-27.16013c0-52.31296,28.92165-75.72474,68.4124-75.72474s68.43288,23.41179,68.43288,75.72474v27.16013c0,51.82137-28.94213,75.72474-68.43288,75.72474ZM1696.60217,2254.75661c0,28.43006,9.31965,41.00648,26.66855,41.00648,17.36938,0,26.66855-12.57641,26.66855-41.00648v-27.16013c0-28.43006-9.29917-41.00648-26.66855-41.00648-17.34889,0-26.66855,12.57641-26.66855,41.00648v27.16013Z" fill="#101315"/>
    <path d="M1723.27847,2332.58959c-44.1615,0-70.53298-29.09444-70.53298-77.82722v-27.16361c0-49.47541,25.71137-77.84373,70.53298-77.84373s70.53298,28.36832,70.53298,77.84373v27.16361c0,48.73278-26.37148,77.82722-70.53298,77.82722ZM1723.27847,2153.97974c-42.13166,0-66.30827,26.83356-66.30827,73.61901v27.16361c0,46.76895,24.17661,73.6025,66.30827,73.6025s66.30827-26.83356,66.30827-73.6025v-27.16361c0-46.78545-24.17661-73.61901-66.30827-73.61901ZM1723.27847,2297.86769c-19.09374,0-28.78089-14.50596-28.78089-43.10532v-27.16361c0-28.61586,9.68715-43.12183,28.78089-43.12183s28.78089,14.50596,28.78089,43.12183v27.16361c0,28.59936-9.68715,43.10532-28.78089,43.10532ZM1723.27847,2188.70164c-10.54529,0-24.55617,4.02668-24.55617,38.89711v27.16361c0,26.15694,8.03687,38.88061,24.55617,38.88061s24.55617-12.72366,24.55617-38.88061v-27.16361c0-34.87042-14.01088-38.89711-24.55617-38.89711Z" fill="#101315"/>
  </g>
  <g>
    <path d="M629.61451,2456.42981v34.71827h-45.28737v138.85259h-41.7541v-138.85259h-45.27713v-34.71827h132.3186Z" fill="#101315"/>
    <path d="M586.44157,2632.11547h-45.97681v-138.85459h-45.28369v-38.94662h136.5442v38.94662h-45.28369v138.85459ZM544.68948,2627.89076h37.52738v-138.85459h45.28369v-30.49718h-128.09476v30.49718h45.28369v138.85459Z" fill="#101315"/>
  </g>
  <g>
    <path d="M611.93789,2630.00068l60.37292-173.57086h40.24861l60.37292,173.57086h-44.51927l-9.30941-29.67951h-53.58289l-9.05338,29.67951h-44.52951ZM676.33567,2565.6029h31.9531l-15.85365-51.3093-16.09945,51.3093Z" fill="#101315"/>
    <path d="M775.90201,2632.11547h-49.03808l-9.30758-29.68854h-50.46557l-9.05179,29.68854h-49.07109l61.84426-177.80121h43.2456l61.84426,177.80121ZM729.96646,2627.89076h39.99454l-58.90676-169.35177h-37.23858l-58.90676,169.35177h39.99454l9.05179-29.68854h56.70363l9.30758,29.68854ZM711.15326,2567.72153h-37.70066l19.00298-60.54879,18.69768,60.54879ZM679.21208,2563.49682h26.2147l-13.00421-42.09865-13.21049,42.09865Z" fill="#101315"/>
  </g>
  <g>
    <path d="M826.11582,2595.28241h67.92081v34.71827h-109.67491v-173.57086h41.7541v138.85259Z" fill="#101315"/>
    <path d="M896.14969,2632.11547h-113.90235v-177.80121h45.97681v138.85459h67.92554v38.94662ZM786.47206,2627.89076h105.45292v-30.49718h-67.92554v-138.85459h-37.52738v169.35177Z" fill="#101315"/>
  </g>
  <g>
    <path d="M949.5961,2595.28241h67.92081v34.71827h-109.68515v-173.57086h41.76434v138.85259Z" fill="#101315"/>
    <path d="M1019.63192,2632.11547h-113.9106v-177.80121h45.98506v138.85459h67.92554v38.94662ZM909.94603,2627.89076h105.46117v-30.49718h-67.92554v-138.85459h-37.53563v169.35177Z" fill="#101315"/>
  </g>
  <g>
    <path d="M1140.98696,2456.42981v34.71827h-67.90033v31.68682h60.36268v34.71827h-60.36268v37.72923h67.90033v34.71827h-109.66467v-173.57086h109.66467Z" fill="#101315"/>
    <path d="M1143.1059,2632.11547h-113.90235v-177.80121h113.90235v38.94662h-67.90904v27.46067h60.36726v38.94662h-60.36726v33.50069h67.90904v38.94662ZM1033.42826,2627.89076h105.45292v-30.49718h-67.90904v-41.95013h60.36726v-30.49718h-60.36726v-35.9101h67.90904v-30.49718h-105.45292v169.35177Z" fill="#101315"/>
  </g>
  <g>
    <path d="M1252.02398,2630.00068l-28.92165-65.64723h-21.62979v65.64723h-41.76434v-173.57086h65.40144c40.00282,0,65.64723,18.35255,65.64723,54.58654,0,22.63344-10.05703,37.97503-27.6722,46.02475l34.71827,72.95957h-45.77896ZM1220.07088,2529.63518c16.85731,0,28.94213-2.27359,28.94213-18.61882,0-16.61151-12.08483-19.86827-28.94213-19.86827h-18.59834v38.4871h18.59834Z" fill="#101315"/>
    <path d="M1301.15325,2632.11547h-50.49858l-.5611-1.25421-28.36832-64.39394h-18.13658v65.64815h-45.99331v-177.80121h67.51297c43.05582,0,67.76051,20.66151,67.76051,56.70363,0,21.93223-9.32408,38.15448-26.98208,47.01649l35.26649,74.08109ZM1253.39413,2627.89076h41.05898l-34.19381-71.86971,1.94733-.89115c17.54248-8.02036,26.43749-22.85638,26.43749-44.11199,0-33.35217-23.15343-52.47892-63.53579-52.47892h-63.28825v169.35177h37.54388v-65.64815h25.10076l.5611,1.25421,28.36832,64.39394ZM1220.07497,2531.74542h-20.71102v-42.70926h20.71102c15.36411,0,31.05828,2.60744,31.05828,21.98173,0,19.12675-15.34761,20.72752-31.05828,20.72752ZM1203.58867,2527.5207h16.4863c17.41046,0,26.83356-2.62395,26.83356-16.5028,0-12.9382-7.27774-17.75702-26.83356-17.75702h-16.4863v34.25982Z" fill="#101315"/>
  </g>
  <path d="M1191.74991,432.91295l-149.87408,149.87408c-78.15823,78.15823-204.87777,78.15823-283.036,0l-149.87408-149.87408,149.87408-149.87408c78.15823-78.15823,204.87777-78.15823,283.036,0l149.87408,149.87408Z" fill="#fff"/>
  <path d="M1333.27953,432.92797l-220.62979,220.62979c-117.24072,117.24072-307.32549,117.24072-424.56621,0l-220.64486-220.64486L900.35156,0l432.92797,432.92797ZM750.47276,432.94303l149.86374,149.86374,149.90894-149.90894-79.11275-79.11275c-39.07469-39.07469-102.42729-39.07469-141.50198,0l-79.15794,79.15794Z" fill="#101315"/>
  <path d="M1633.01608,1157.21512l-149.87408,149.87408-441.26617-441.26617c-78.15823-78.15823-78.15823-204.87777,0-283.036l149.87408-149.87408,441.26617,441.26617c78.15823,78.15823,78.15823,204.87777,0,283.036Z" fill="#fff"/>
  <g>
    <path d="M1703.77304,1227.98767l-317.69081,317.69081-724.30875-724.30875,529.97392-529.97392,512.02565,512.02565c117.24072,117.24072,117.24072,307.32549,0,424.56621ZM1471.00128,1177.6952l91.23965-91.23965c39.02152-39.02152,39.05165-102.51059.03013-141.53211l-370.49353-370.49353-79.12781,79.12781c-39.02152,39.02152-39.05165,102.51059-.03013,141.53211l358.3817,382.60536Z" fill="#fff"/>
    <path d="M1386.07668,1557.63442l-736.24784-736.26434,541.91082-541.91907,518.00651,517.99826c120.33845,120.3467,120.33845,316.16071,0,436.51566l-323.66949,323.66949ZM673.7249,821.37009l712.35178,712.36828,311.72146-311.72146c113.75383-113.76208,113.75383-298.86578,0-412.6196l-506.05848-506.05023-518.01476,518.02301ZM1470.80207,1189.84469l-364.3489-388.97934c-42.11516-42.09865-42.09865-110.94835.21454-153.27804l85.10496-85.10496,376.47846,376.47021c42.29669,42.30494,42.28018,111.15463-.03301,153.47607l-97.41605,97.41605ZM1191.77266,586.37841l-73.15693,73.15693c-35.72857,35.73682-35.72857,93.86795-.0165,129.58002l352.59891,376.43721,85.07195-85.07195c35.72857-35.73682,35.74507-93.8597.03301-129.58002l-364.53043-364.52218Z" fill="#101315"/>
  </g>
  <path d="M1483.142,1307.0892l-441.26617,441.26617c-78.15823,78.15823-204.87777,78.15823-283.036,0l-441.26617-441.26617,441.26617-441.26617c78.15823-78.15823,204.87777-78.15823,283.036,0l441.26617,441.26617Z" fill="#fff"/>
  <g>
    <path d="M1412.40401,1519.35676l-512.02231,512.02231L101.13354,1232.13092,825.3971,507.86737l587.00691,587.00691c117.2176,117.2176,117.2176,307.26488,0,424.48248ZM459.10704,1307.10045l370.49353,370.49353c39.02152,39.02152,102.48046,39.02152,141.50198,0l370.5086-370.5086-370.49353-370.49353c-39.02152-39.02152-102.48046-39.02152-141.50198,0l-370.5086,370.5086Z" fill="#101315"/>
    <path d="M900.38266,2043.32844L89.18734,1232.13312,825.39392,495.91829l592.97874,592.97874c120.32194,120.33019,120.32194,316.11946,0,436.4414l-517.99,517.99ZM113.0834,1232.13312l787.29926,787.29926,506.04197-506.04197c113.73732-113.73732,113.73732-298.80802,0-412.54534l-581.03071-581.03071L113.0834,1232.13312ZM900.34965,1715.31871c-29.00368,0-56.25806-11.27141-76.72153-31.75139l-376.47021-376.47021,376.48671-376.47846c20.46348-20.47173,47.71786-31.74314,76.72153-31.74314,29.01193,0,56.25806,11.27141,76.72153,31.74314l376.47846,376.47021-376.49496,376.47846c-20.46348,20.47998-47.70961,31.75139-76.72153,31.75139ZM471.05397,1307.09711l364.52218,364.52218c17.27844,17.27844,40.28334,26.80055,64.7735,26.80055s47.49507-9.52212,64.7735-26.80055l364.54694-364.53043-364.53043-364.52218c-17.27844-17.27844-40.28334-26.7923-64.7735-26.7923s-47.49507,9.51387-64.7735,26.7923l-364.53868,364.53043Z" fill="#101315"/>
  </g>
  <path d="M317.33792,1307.79641l-150.34555-150.34555c-78.15823-78.15823-78.15823-204.87777,0-283.036l442.20911-442.20911,150.34556,150.34556c78.15823,78.15823,78.15823,204.87777,0,283.036l-442.20911,442.20911Z" fill="#fff"/>
  <g>
    <path d="M830.32375,936.33573l-512.97482,512.97482-221.11191-221.11191c-117.0495-117.0495-117.06457-307.50165,0-424.56621L609.18171,290.68774l221.11191,221.11191c117.0495,117.0495,117.06457,307.50165.03013,424.53608ZM317.3188,1166.27645l371.47284-371.47284c39.02152-39.02152,39.02152-102.48046,0-141.50198l-79.5798-79.5798-371.4427,371.4427c-39.02152,39.02152-39.05165,102.51059-.03013,141.53211l79.5798,79.5798Z" fill="#fff"/>
    <path d="M317.34685,1461.25805l-227.08683-227.08683c-120.3467-120.3467-120.3467-316.16071,0-436.51566L609.18244,278.74139l227.08683,227.08683c58.21364,58.20539,90.27034,135.71081,90.27034,218.24133.0165,82.53877-32.04019,160.04419-90.24558,218.24133l-518.94717,518.94717ZM609.18244,302.63745L102.20805,809.60359c-113.75383,113.76208-113.75383,298.86578,0,412.6196l215.1388,215.1388,506.99914-506.99914c55.0121-55.0121,85.30299-128.26804,85.30299-206.2933-.00825-78.017-30.3074-151.2812-85.32775-206.2933l-215.1388-215.1388ZM317.3221,1178.22671l-85.55879-85.55879c-42.30494-42.30494-42.28843-111.15463.03301-153.47607l377.41912-377.41912,85.55053,85.55879c20.47173,20.46348,31.74314,47.71786,31.74314,76.72153s-11.27141,56.25806-31.74314,76.72153l-377.44388,377.45213ZM609.21544,585.66879l-365.47109,365.47109c-17.27844,17.27844-26.80055,40.2916-26.8088,64.79001-.00825,24.50666,9.50561,47.51982,26.7758,64.79001l73.61076,73.61076,365.49585-365.5041c17.27844-17.27844,26.7923-40.28334,26.7923-64.7735s-9.51387-47.49507-26.7923-64.7735l-73.6025-73.61076Z" fill="#101315"/>
  </g>
</svg>