<?xml version="1.0" encoding="UTF-8"?>
<svg id="Layer_1" data-name="Layer 1" xmlns="http://www.w3.org/2000/svg" viewBox="0 0 1000 1000">
  <defs>
    <style>
      .cls-1 {
        fill: #43459b;
      }

      .cls-1, .cls-2, .cls-3, .cls-4, .cls-5, .cls-6, .cls-7 {
        stroke-miterlimit: 10;
        stroke-width: 5.66929px;
      }

      .cls-1, .cls-2, .cls-4, .cls-5, .cls-6, .cls-7 {
        stroke: #fff;
      }

      .cls-2 {
        fill: #fc3;
      }

      .cls-3 {
        fill: none;
        stroke: #43459b;
      }

      .cls-4 {
        fill: #ff4525;
      }

      .cls-5 {
        fill: #ec1e24;
      }

      .cls-6 {
        fill: #46c7f4;
      }

      .cls-7 {
        fill: #6fbd44;
      }
    </style>
  </defs>
  <circle class="cls-3" cx="399.55284" cy="198.6598" r="11.81178"/>
  <g>
    <rect class="cls-5" x="401.7851" y="401.78638" width="1000.00256" height="196.42724" transform="translate(1401.78638 -401.78638) rotate(90)"/>
    <polygon class="cls-4" points="0 1000.00128 0 803.57147 200.89255 803.57147 200.89255 401.78638 397.31979 401.78638 397.31979 803.57404 598.21234 803.57404 598.21234 1000.00128 0 1000.00128"/>
    <path class="cls-2" d="M200.89255,196.42596V-.00128h598.2149v598.2149h-196.42981V208.23402c0-6.52141-5.28665-11.80806-11.80806-11.80806H200.89255Z"/>
    <path class="cls-6" d="M602.68021,1000.00128v-200.89511h-200.89511V212.69933c0-6.52141,5.28665-11.80806,11.80806-11.80806h172.81112c6.52141,0,11.80806,5.28665,11.80806,11.80806v389.9796h200.89511v397.32236h-196.42724Z"/>
    <path class="cls-7" d="M0,799.10617V-.00128h196.42724v200.89255h189.08449c6.52141,0,11.80806,5.28665,11.80806,11.80806v184.62175h-200.89255v401.7851H0Z"/>
  </g>
  <g>
    <circle class="cls-1" cx="700.89271" cy="299.10673" r="66.96442"/>
    <circle class="cls-1" cx="299.10616" cy="700.89327" r="66.96442"/>
    <circle class="cls-1" cx="700.89271" cy="700.89327" r="66.96442"/>
    <circle class="cls-1" cx="299.10616" cy="299.10673" r="66.96442"/>
  </g>
</svg>