<?xml version="1.0" encoding="UTF-8"?>
<svg id="Layer_1" data-name="Layer 1" xmlns="http://www.w3.org/2000/svg" viewBox="0 0 887.8166 1000">
  <defs>
    <style>
      .cls-1 {
        fill: #231f20;
      }

      .cls-2 {
        fill: #eb248e;
      }

      .cls-2, .cls-3 {
        stroke: #231f20;
        stroke-miterlimit: 10;
        stroke-width: 8.50394px;
      }

      .cls-3 {
        fill: #fff;
      }
    </style>
  </defs>
  <path class="cls-2" d="M588.51606,271.21205l1.56857,2.8319M309.68645,134.86979L442.63609,1.89913c.68902-.68913,2.86485-.7874,3.3426-.30954l135.48727,135.51591,6.40649,7.03809-143.29779,143.30356-34.87614-34.04983-108.75651-109.36561,8.74446-9.16191ZM444.58945,275.82423l73.25927-73.3254-39.99591-39.65073c-8.313-8.24126-20.67986-10.97883-31.3709-11.85106-15.09856-.36502-28.55859,4.33868-38.644,14.43974l-36.53707,36.59378,39.27433,39.50967c11.02952,12.07469,21.69547,23.20911,34.01428,34.284ZM587.91879,283.69056"/>
  <g>
    <path class="cls-1" d="M444.34001,1001.29337l-286.23918-286.0666-118.47425-119.14436c-55.31381-55.62667-51.653-150.5168,3.6034-205.91114l255.17016-255.80722c.53255-.53388,145.75011,141.14152,146.18933,141.46018,0,0,143.78635-143.83842,145.17122-141.9189l257.04878,258.4896c55.31166,55.62169,52.65896,145.04978,3.49817,202.88189l-405.96761,406.01655ZM405.92094,453.95971c55.31817-54.46152,58.96681-145.06407,3.77757-200.56239l-108.75651-109.36561L49.15664,395.83956c-54.38424,56.55913-53.49754,145.83496,2.12414,201.42563l105.7303,105.67138,248.90986-248.97686ZM775.3153,530.68004l-44.87273,45.21557c16.61497,37.71699,18.03608,78.28036,3.50878,117.43476-.0879.99557,2.15815,3.14852,3.3374,3.1886l98.93192-98.83971c26.16391-26.13953,41.64635-60.21903,43.0139-98.0441,1.39532-38.59291-14.50814-78.39553-41.41572-105.32663l-249.94641-250.16494-137.83396,137.83974,70.62151,70.7875,9.35805,7.88339c-.23093-17.28913,2.249-32.8136,13.74224-44.38439l44.75579-45.05778,1.56857,2.8319,186.23335,186.50115c15.47057,15.49282,17.58927,51.40095-1.00267,70.13494ZM444.58945,275.82423l73.25927-73.3254-39.99591-39.65073c-8.313-8.24126-20.67986-10.97883-31.3709-11.85106-15.09856-.36502-28.55859,4.33868-38.644,14.43974l-36.53707,36.59378,39.27433,39.50967c11.02952,12.07469,21.69547,23.20911,34.01428,34.284ZM727.5154,566.76971l41.02305-40.86753c15.26583-17.20269,17.18248-44.12601-.45323-61.78699l-180.16642-180.42463-35.89637,35.80352c-16.05439,16.01287-19.29136,43.69302-2.89067,60.52657l36.79838,37.76957,118.6465,118.96918c9.181,9.20597,14.3332,19.6682,22.93877,30.01031ZM476.40681,818.00859l179.18883-179.21513-181.39906-181.41072c-8.01191-8.01243-17.7749-9.57883-27.56446-11.94025-9.57102,1.46219-21.62308,1.72539-30.02071,10.11895l-183.63602,183.54703,179.06621,179.04144c17.68849,17.68605,45.65097,18.57568,64.36521-.14131Z"/>
    <path class="cls-1" d="M160.3065,572.36781c-1.77041,1.77202-4.39731,1.958-5.41906.92207l-41.5505-42.12689c-19.99099-20.26831-19.20617-52.99143,1.72584-73.93313l183.34009-183.42502c2.01007-2.011,3.77312-1.51846,4.31927-.96343l41.59912,42.27643c19.82874,20.15159,19.21011,53.83993-1.0142,74.08268l-183.00056,183.16729ZM339.20555,380.81304c16.39662-16.43763,14.19433-44.30395-.51629-59.13078l-37.8146-38.1133-183.95755,184.01973c-13.60957,19.09209-12.65332,43.09818,3.11216,58.78452l37.12889,36.9425,182.04739-182.50267Z"/>
  </g>
  <path class="cls-3" d="M444.58945,275.82423l73.25927-73.3254-39.99591-39.65073c-8.313-8.24126-20.67986-10.97883-31.3709-11.85106-15.09856-.36502-28.55859,4.33868-38.644,14.43974l-36.53707,36.59378,39.27433,39.50967c11.02952,12.07469,21.69547,23.20911,34.01428,34.284Z"/>
</svg>